<mxfile host="Electron" agent="Mozilla/5.0 (X11; Linux x86_64) AppleWebKit/537.36 (KHTML, like Gecko) draw.io/28.1.2 Chrome/138.0.7204.251 Electron/37.5.1 Safari/537.36" version="28.1.2">
  <diagram name="Page-1" id="Q-jTHodflOOkW2ntbLj8">
    <mxGraphModel dx="2276" dy="840" grid="1" gridSize="10" guides="1" tooltips="1" connect="1" arrows="1" fold="1" page="1" pageScale="1" pageWidth="850" pageHeight="1100" math="0" shadow="0">
      <root>
        <mxCell id="0" />
        <mxCell id="1" parent="0" />
        <mxCell id="cKP0_HG6dYjyr28uujYo-4" value="--------" style="rounded=0;whiteSpace=wrap;html=1;fillColor=#FFFFFF;" parent="1" vertex="1">
          <mxGeometry x="-10" y="40" width="850" height="610" as="geometry" />
        </mxCell>
        <mxCell id="cKP0_HG6dYjyr28uujYo-1" value="" style="image;html=1;image=img/lib/clip_art/networking/Router_Icon_128x128.png" parent="1" vertex="1">
          <mxGeometry x="150" y="400" width="80" height="80" as="geometry" />
        </mxCell>
        <mxCell id="cKP0_HG6dYjyr28uujYo-2" value="" style="image;html=1;image=img/lib/clip_art/networking/Router_Icon_128x128.png" parent="1" vertex="1">
          <mxGeometry x="385" y="120" width="80" height="80" as="geometry" />
        </mxCell>
        <mxCell id="cKP0_HG6dYjyr28uujYo-3" value="" style="image;html=1;image=img/lib/clip_art/networking/Router_Icon_128x128.png" parent="1" vertex="1">
          <mxGeometry x="620" y="400" width="80" height="80" as="geometry" />
        </mxCell>
        <mxCell id="cKP0_HG6dYjyr28uujYo-5" value="" style="endArrow=none;html=1;rounded=0;entryX=0.313;entryY=0.75;entryDx=0;entryDy=0;exitX=0.75;exitY=0.25;exitDx=0;exitDy=0;strokeWidth=3;strokeColor=#000000;exitPerimeter=0;entryPerimeter=0;" parent="1" source="cKP0_HG6dYjyr28uujYo-1" target="cKP0_HG6dYjyr28uujYo-2" edge="1">
          <mxGeometry width="50" height="50" relative="1" as="geometry">
            <mxPoint x="400" y="460" as="sourcePoint" />
            <mxPoint x="450" y="410" as="targetPoint" />
          </mxGeometry>
        </mxCell>
        <mxCell id="cKP0_HG6dYjyr28uujYo-6" value="" style="endArrow=none;html=1;rounded=0;entryX=0.25;entryY=0.25;entryDx=0;entryDy=0;exitX=0.813;exitY=0.75;exitDx=0;exitDy=0;strokeWidth=3;strokeColor=#000000;exitPerimeter=0;entryPerimeter=0;" parent="1" source="cKP0_HG6dYjyr28uujYo-2" target="cKP0_HG6dYjyr28uujYo-3" edge="1">
          <mxGeometry width="50" height="50" relative="1" as="geometry">
            <mxPoint x="440" y="600" as="sourcePoint" />
            <mxPoint x="615" y="380" as="targetPoint" />
          </mxGeometry>
        </mxCell>
        <mxCell id="cKP0_HG6dYjyr28uujYo-7" value="&lt;font style=&quot;font-size: 15px; color: rgb(0, 0, 0);&quot;&gt;loopback0&lt;/font&gt;&lt;div&gt;&lt;font style=&quot;font-size: 15px; color: rgb(0, 0, 0);&quot;&gt;10.0.1.1/24&lt;/font&gt;&lt;/div&gt;" style="shape=process;whiteSpace=wrap;html=1;backgroundOutline=1;fillColor=#CCCCCC;strokeColor=#000000;" parent="1" vertex="1">
          <mxGeometry x="130" y="500" width="120" height="60" as="geometry" />
        </mxCell>
        <mxCell id="cKP0_HG6dYjyr28uujYo-8" value="&lt;font style=&quot;font-size: 15px; color: rgb(0, 0, 0);&quot;&gt;loopback0&lt;/font&gt;&lt;div&gt;&lt;font style=&quot;font-size: 15px; color: rgb(0, 0, 0);&quot;&gt;10.0.2.2/24&lt;/font&gt;&lt;/div&gt;" style="shape=process;whiteSpace=wrap;html=1;backgroundOutline=1;fillColor=#CCCCCC;strokeColor=#000000;" parent="1" vertex="1">
          <mxGeometry x="365" y="50" width="120" height="60" as="geometry" />
        </mxCell>
        <mxCell id="cKP0_HG6dYjyr28uujYo-9" value="&lt;font style=&quot;font-size: 15px; color: rgb(0, 0, 0);&quot;&gt;loopback0&lt;/font&gt;&lt;div&gt;&lt;font style=&quot;font-size: 15px; color: rgb(0, 0, 0);&quot;&gt;10.0.3.3/24&lt;/font&gt;&lt;/div&gt;" style="shape=process;whiteSpace=wrap;html=1;backgroundOutline=1;fillColor=#CCCCCC;strokeColor=#000000;" parent="1" vertex="1">
          <mxGeometry x="600" y="500" width="120" height="60" as="geometry" />
        </mxCell>
        <mxCell id="cKP0_HG6dYjyr28uujYo-11" value="" style="endArrow=none;html=1;rounded=0;entryX=0.5;entryY=0.875;entryDx=0;entryDy=0;exitX=0.5;exitY=0;exitDx=0;exitDy=0;strokeWidth=3;strokeColor=#000000;entryPerimeter=0;" parent="1" source="cKP0_HG6dYjyr28uujYo-9" target="cKP0_HG6dYjyr28uujYo-3" edge="1">
          <mxGeometry width="50" height="50" relative="1" as="geometry">
            <mxPoint x="410" y="340" as="sourcePoint" />
            <mxPoint x="800" y="340" as="targetPoint" />
          </mxGeometry>
        </mxCell>
        <mxCell id="cKP0_HG6dYjyr28uujYo-13" value="" style="endArrow=none;html=1;rounded=0;exitX=0.5;exitY=0;exitDx=0;exitDy=0;strokeWidth=3;strokeColor=#000000;entryX=0.5;entryY=0.875;entryDx=0;entryDy=0;entryPerimeter=0;" parent="1" source="cKP0_HG6dYjyr28uujYo-7" target="cKP0_HG6dYjyr28uujYo-1" edge="1">
          <mxGeometry width="50" height="50" relative="1" as="geometry">
            <mxPoint x="360" y="550" as="sourcePoint" />
            <mxPoint x="190" y="460" as="targetPoint" />
          </mxGeometry>
        </mxCell>
        <mxCell id="cKP0_HG6dYjyr28uujYo-14" value="" style="endArrow=none;html=1;rounded=0;exitX=0.5;exitY=0.125;exitDx=0;exitDy=0;strokeWidth=3;strokeColor=#000000;entryX=0.5;entryY=1;entryDx=0;entryDy=0;exitPerimeter=0;" parent="1" source="cKP0_HG6dYjyr28uujYo-2" target="cKP0_HG6dYjyr28uujYo-8" edge="1">
          <mxGeometry width="50" height="50" relative="1" as="geometry">
            <mxPoint x="530" y="160" as="sourcePoint" />
            <mxPoint x="530" y="120" as="targetPoint" />
          </mxGeometry>
        </mxCell>
        <mxCell id="cKP0_HG6dYjyr28uujYo-16" value="&lt;font style=&quot;font-size: 15px; color: rgb(0, 0, 0);&quot;&gt;10.0.12.0/24&lt;/font&gt;" style="text;html=1;align=center;verticalAlign=middle;whiteSpace=wrap;rounded=0;rotation=-50;" parent="1" vertex="1">
          <mxGeometry x="250" y="270" width="100" height="30" as="geometry" />
        </mxCell>
        <mxCell id="cKP0_HG6dYjyr28uujYo-17" value="&lt;font style=&quot;color: rgb(0, 0, 0); font-size: 14px;&quot;&gt;eth1&lt;/font&gt;" style="text;html=1;align=center;verticalAlign=middle;whiteSpace=wrap;rounded=0;perimeterSpacing=3;dashed=1;strokeColor=#000000;" parent="1" vertex="1">
          <mxGeometry x="170" y="380" width="40" height="30" as="geometry" />
        </mxCell>
        <mxCell id="cKP0_HG6dYjyr28uujYo-18" value="&lt;font style=&quot;color: rgb(0, 0, 0); font-size: 14px;&quot;&gt;eth2&lt;/font&gt;" style="text;html=1;align=center;verticalAlign=middle;whiteSpace=wrap;rounded=0;perimeterSpacing=3;dashed=1;strokeColor=#000000;" parent="1" vertex="1">
          <mxGeometry x="465" y="170" width="40" height="30" as="geometry" />
        </mxCell>
        <mxCell id="cKP0_HG6dYjyr28uujYo-19" value="&lt;font style=&quot;color: rgb(0, 0, 0); font-size: 14px;&quot;&gt;eth1&lt;/font&gt;" style="text;html=1;align=center;verticalAlign=middle;whiteSpace=wrap;rounded=0;perimeterSpacing=3;dashed=1;strokeColor=#000000;" parent="1" vertex="1">
          <mxGeometry x="345" y="170" width="40" height="30" as="geometry" />
        </mxCell>
        <mxCell id="cKP0_HG6dYjyr28uujYo-20" value="&lt;font style=&quot;color: rgb(0, 0, 0); font-size: 14px;&quot;&gt;eth1&lt;/font&gt;" style="text;html=1;align=center;verticalAlign=middle;whiteSpace=wrap;rounded=0;perimeterSpacing=3;dashed=1;strokeColor=#000000;" parent="1" vertex="1">
          <mxGeometry x="640" y="380" width="40" height="30" as="geometry" />
        </mxCell>
        <mxCell id="cKP0_HG6dYjyr28uujYo-23" value="&lt;font style=&quot;color: rgb(0, 0, 0); font-size: 14px;&quot;&gt;.1&lt;/font&gt;" style="text;html=1;align=center;verticalAlign=middle;whiteSpace=wrap;rounded=0;perimeterSpacing=3;dashed=1;strokeColor=#000000;dashPattern=1 2;" parent="1" vertex="1">
          <mxGeometry x="220" y="360" width="20" height="30" as="geometry" />
        </mxCell>
        <mxCell id="cKP0_HG6dYjyr28uujYo-24" value="&lt;font style=&quot;color: rgb(0, 0, 0); font-size: 14px;&quot;&gt;.2&lt;/font&gt;" style="text;html=1;align=center;verticalAlign=middle;whiteSpace=wrap;rounded=0;perimeterSpacing=3;dashed=1;strokeColor=#000000;dashPattern=1 2;" parent="1" vertex="1">
          <mxGeometry x="400" y="190" width="20" height="30" as="geometry" />
        </mxCell>
        <mxCell id="cKP0_HG6dYjyr28uujYo-25" value="&lt;font style=&quot;color: rgb(0, 0, 0); font-size: 14px;&quot;&gt;.3&lt;/font&gt;" style="text;html=1;align=center;verticalAlign=middle;whiteSpace=wrap;rounded=0;perimeterSpacing=3;dashed=1;strokeColor=#000000;dashPattern=1 2;" parent="1" vertex="1">
          <mxGeometry x="600" y="400" width="20" height="30" as="geometry" />
        </mxCell>
        <mxCell id="ehrDwvO178LiMX7kLMUU-1" value="&lt;font style=&quot;color: rgb(0, 0, 0); font-size: 14px;&quot;&gt;.2&lt;/font&gt;" style="text;html=1;align=center;verticalAlign=middle;whiteSpace=wrap;rounded=0;perimeterSpacing=3;dashed=1;strokeColor=#000000;dashPattern=1 2;" vertex="1" parent="1">
          <mxGeometry x="440" y="190" width="20" height="30" as="geometry" />
        </mxCell>
        <mxCell id="ehrDwvO178LiMX7kLMUU-2" value="&lt;font style=&quot;font-size: 15px; color: rgb(0, 0, 0);&quot;&gt;10.0.23.0/24&lt;/font&gt;" style="text;html=1;align=center;verticalAlign=middle;whiteSpace=wrap;rounded=0;rotation=50;" vertex="1" parent="1">
          <mxGeometry x="510.0000471311116" y="270.004036301247" width="100" height="30" as="geometry" />
        </mxCell>
      </root>
    </mxGraphModel>
  </diagram>
</mxfile>
